<?xml version="1.0" standalone="no"?><!DOCTYPE svg PUBLIC "-//W3C//DTD SVG 1.1//EN" "http://www.w3.org/Graphics/SVG/1.1/DTD/svg11.dtd"><svg class="icon" height="512" viewBox="0 0 1024 1024" version="1.1" xmlns="http://www.w3.org/2000/svg"><path d="M804.937143 402.285714l0.073143 508.708572a36.498286 36.498286 0 0 1-36.937143 36.059428h-512a36.644571 36.644571 0 0 1-37.083429-36.059428l-0.073143-510.244572c0-20.260571-14.701714-36.571429-34.962285-36.571428-20.187429 0-35.035429 16.310857-35.035429 36.571428l0.073143 510.171429c0 60.489143 46.592 113.078857 107.081143 113.078857h512.146286c60.489143 0 112.932571-52.662857 112.932571-113.078857l-0.073143-508.708572a38.034286 38.034286 0 0 0-38.034286-36.498285 37.888 37.888 0 0 0-38.034285 36.571428zM658.285714 770.852571V399.433143C658.285714 380.854857 641.170286 365.714286 621.714286 365.714286s-36.571429 14.994286-36.571429 33.718857v371.346286c0 18.578286 17.115429 33.792 36.571429 33.792s36.571429-15.213714 36.571428-33.792z m-219.428571 0V399.433143C438.857143 380.854857 421.741714 365.714286 402.285714 365.714286s-36.571429 14.994286-36.571428 33.718857v371.346286c0 18.578286 17.115429 33.792 36.571428 33.792s36.571429-15.213714 36.571429-33.792zM805.010286 219.428571V106.349714C805.010286 45.860571 755.712 0 695.734857 0H329.142857c-60.416 0-110.08 45.860571-110.08 106.276571V219.428571H36.571429a36.571429 36.571429 0 1 0 0 73.142858H987.428571a36.644571 36.644571 0 1 0 0-73.142858h-182.418285zM729.088 219.428571H289.938286V106.349714c0-20.260571 19.090286-36.352 39.204571-36.352h366.592c19.968 0 33.28 15.798857 33.28 36.352V219.428571z" fill="#FFFFFF" /></svg>